<?xml version="1.0" encoding="UTF-8"?>
<svg width="42px" height="42px" viewBox="0 0 42 42" version="1.1" xmlns="http://www.w3.org/2000/svg" xmlns:xlink="http://www.w3.org/1999/xlink">
    <!-- Generator: Sketch 61 (89581) - https://sketch.com -->
    <title>logo-mark</title>
    <desc>Created with Sketch.</desc>
    <g id="Symbols" stroke="none" stroke-width="1" fill="none" fill-rule="evenodd">
        <g id="logo/mark" transform="translate(0.271484, 0.000000)" fill="#105678">
            <g id="Group-2">
                <path d="M20.4823,12.195 L20.8133,12.195 L20.8183,12.195 C20.8173,12.144 21.8503,8.853 25.4983,7.576 C25.4983,7.576 23.6073,6.017 22.5123,3.025 L23.1503,2.162 L24.7033,2.142 L25.1303,2.783 L25.4363,2.617 L24.7783,1.226 L23.5453,1.226 L22.3473,0 L16.5703,0 L16.8813,0.668 L19.3573,0.902 C19.3303,1.06 19.2993,1.218 19.2663,1.371 L17.2043,1.382 L17.5143,2.049 L19.0593,2.197 C18.0453,5.728 15.8023,7.576 15.8023,7.576 C19.4523,8.853 20.4833,12.144 20.4823,12.195" id="Fill-128"></path>
                <path d="M18.284,17.1325 C18.644,19.9175 19.054,23.6965 19.054,23.6965 L19.871,23.7045 C19.871,23.7045 19.842,17.5325 19.842,14.3145 C19.842,12.9275 18.589,10.1895 14.466,8.7325 C12.469,8.0255 11.048,6.4995 9.787,4.3395 C8.993,2.9785 7.802,2.3905 6.622,2.4725 C4.975,2.5895 2.397,4.1595 1.919,8.8645 C1.717,10.8435 5.68434189e-14,27.5365 5.68434189e-14,27.5365 C5.68434189e-14,27.5365 1.233,26.6305 3.228,25.5235 L4.917,10.4545 C5.2,10.6525 5.546,10.8745 5.951,11.1145 L4.407,24.8925 C5.124,24.5275 5.909,24.1535 6.744,23.7945 L8.048,12.1555 C8.384,12.2945 8.737,12.4315 9.112,12.5625 L7.906,23.3215 C8.644,23.0365 9.414,22.7695 10.208,22.5365 L11.258,13.1595 C11.609,13.2365 11.97,13.3065 12.344,13.3645 L11.351,22.2205 C12.104,22.0325 12.872,21.8765 13.652,21.7635 L14.522,16.0645 C14.522,16.0645 14.701,14.2515 16.307,14.2655 C17.426,14.2735 18.029,15.1555 18.284,17.1325" id="Fill-130"></path>
                <path d="M38.0677,25.5231 C40.0627,26.6301 41.2967,27.5371 41.2967,27.5371 C41.2967,27.5371 39.5787,10.8431 39.3777,8.8651 C38.8997,4.1601 36.3207,2.5891 34.6747,2.4721 C33.4937,2.3901 32.3037,2.9781 31.5097,4.3391 C30.2497,6.5001 28.8277,8.0251 26.8307,8.7321 C22.7077,10.1891 21.4537,12.9271 21.4537,14.3141 C21.4537,17.5331 21.4247,23.7051 21.4247,23.7051 L22.2417,23.6971 C22.2417,23.6971 22.6527,19.9181 23.0127,17.1321 C23.2677,15.1561 23.8707,14.2731 24.9887,14.2651 C26.5957,14.2521 26.7747,16.0641 26.7747,16.0641 L27.6457,21.7631 C28.4247,21.8771 29.1937,22.0331 29.9437,22.2201 L28.9527,13.3651 C29.3257,13.3061 29.6887,13.2361 30.0397,13.1601 L31.0887,22.5371 C31.8817,22.7691 32.6527,23.0371 33.3907,23.3221 L32.1857,12.5621 C32.5597,12.4311 32.9137,12.2941 33.2487,12.1561 L34.5517,23.7941 C35.3897,24.1541 36.1727,24.5271 36.8887,24.8921 L35.3457,11.1151 C35.7517,10.8751 36.0967,10.6521 36.3807,10.4551 L38.0677,25.5231 Z" id="Fill-132"></path>
                <path d="M20.1649,31.2497 L20.6699,27.1477 L21.1769,31.2497 C21.0109,31.2297 20.8429,31.2227 20.6699,31.2227 C20.4999,31.2227 20.3319,31.2297 20.1649,31.2497 M19.8279,27.8947 L19.2039,31.4387 C18.6989,31.5897 18.2269,31.8177 17.7999,32.1087 C17.9919,31.6867 18.3179,30.9767 18.6079,30.3947 C19.0499,29.5097 19.8279,27.8947 19.8279,27.8947 M22.7339,30.3947 C23.0239,30.9767 23.3499,31.6867 23.5419,32.1087 C23.1159,31.8177 22.6429,31.5897 22.1369,31.4387 L21.5139,27.8947 C21.5139,27.8947 22.2909,29.5097 22.7339,30.3947 M20.6699,24.0697 C20.6699,24.0697 20.1709,26.0607 17.7989,29.9197 C15.3579,33.8977 15.5809,36.3117 15.5809,36.3117 C15.5809,39.1247 17.8609,41.4017 20.6699,41.4017 C23.4809,41.4017 25.7599,39.1247 25.7599,36.3117 L25.7619,36.3117 C25.7619,36.3117 25.9829,33.8977 23.5419,29.9197 C21.1719,26.0607 20.6699,24.0697 20.6699,24.0697" id="Fill-134"></path>
            </g>
        </g>
    </g>
</svg>